TITLE ""
FILE "29.mp3" MP3
  TRACK 01 AUDIO
    TITLE "29_01"
    INDEX 01 00:00:00
  TRACK 02 AUDIO
    TITLE "29_02"
    INDEX 01 00:00:18
  TRACK 03 AUDIO
    TITLE "29_03"
    INDEX 01 00:01:70
  TRACK 04 AUDIO
    TITLE "29_04"
    INDEX 01 00:02:37
  TRACK 05 AUDIO
    TITLE "29_05"
    INDEX 01 00:03:32
  TRACK 06 AUDIO
    TITLE "29_06"
    INDEX 01 00:03:71
  TRACK 07 AUDIO
    TITLE "29_07"
    INDEX 01 00:04:71
  TRACK 08 AUDIO
    TITLE "29_08"
    INDEX 01 00:05:35
  TRACK 09 AUDIO
    TITLE "29_09"
    INDEX 01 00:09:17
  TRACK 10 AUDIO
    TITLE "29_10"
    INDEX 01 00:09:54
  TRACK 11 AUDIO
    TITLE "29_11"
    INDEX 01 00:11:61
  TRACK 12 AUDIO
    TITLE "29_12"
    INDEX 01 00:12:29
  TRACK 13 AUDIO
    TITLE "29_13"
    INDEX 01 00:13:31
  TRACK 14 AUDIO
    TITLE "29_14"
    INDEX 01 00:13:74
  TRACK 15 AUDIO
    TITLE "29_15"
    INDEX 01 00:16:45
  TRACK 16 AUDIO
    TITLE "29_16"
    INDEX 01 00:17:11
  TRACK 17 AUDIO
    TITLE "29_17"
    INDEX 01 00:19:04
  TRACK 18 AUDIO
    TITLE "29_18"
    INDEX 01 00:19:43
  TRACK 19 AUDIO
    TITLE "29_19"
    INDEX 01 00:20:40
  TRACK 20 AUDIO
    TITLE "29_20"
    INDEX 01 00:21:05
  TRACK 21 AUDIO
    TITLE "29_21"
    INDEX 01 00:22:06
  TRACK 22 AUDIO
    TITLE "29_22"
    INDEX 01 00:22:43
  TRACK 23 AUDIO
    TITLE "29_23"
    INDEX 01 00:27:42
  TRACK 24 AUDIO
    TITLE "29_24"
    INDEX 01 00:28:07
  TRACK 25 AUDIO
    TITLE "29_25"
    INDEX 01 00:31:13
  TRACK 26 AUDIO
    TITLE "29_26"
    INDEX 01 00:31:52
  TRACK 27 AUDIO
    TITLE "29_27"
    INDEX 01 00:32:53
  TRACK 28 AUDIO
    TITLE "29_28"
    INDEX 01 00:33:22
  TRACK 29 AUDIO
    TITLE "29_29"
    INDEX 01 00:35:60
  TRACK 30 AUDIO
    TITLE "29_30"
    INDEX 01 00:36:22
  TRACK 31 AUDIO
    TITLE "29_31"
    INDEX 01 00:38:09
  TRACK 32 AUDIO
    TITLE "29_32"
    INDEX 01 00:38:52
  TRACK 33 AUDIO
    TITLE "29_33"
    INDEX 01 00:39:51
  TRACK 34 AUDIO
    TITLE "29_34"
    INDEX 01 00:40:16
  TRACK 35 AUDIO
    TITLE "29_35"
    INDEX 01 00:41:15
  TRACK 36 AUDIO
    TITLE "29_36"
    INDEX 01 00:41:58
  TRACK 37 AUDIO
    TITLE "29_37"
    INDEX 01 00:45:15
  TRACK 38 AUDIO
    TITLE "29_38"
    INDEX 01 00:45:60
  TRACK 39 AUDIO
    TITLE "29_39"
    INDEX 01 00:47:57
  TRACK 40 AUDIO
    TITLE "29_40"
    INDEX 01 00:48:21
  TRACK 41 AUDIO
    TITLE "29_41"
    INDEX 01 00:49:24
  TRACK 42 AUDIO
    TITLE "29_42"
    INDEX 01 00:49:70
  TRACK 43 AUDIO
    TITLE "29_43"
    INDEX 01 00:53:75
  TRACK 44 AUDIO
    TITLE "29_44"
    INDEX 01 00:54:57
  TRACK 45 AUDIO
    TITLE "29_45"
    INDEX 01 00:57:22
